# xmcd CD database file
#
# Track frame offsets:
#	150
#	19197
#	28797
#	46492
#	63836
#	94586
#	124324
#	155861
#	194553
#	211235
#	229104
#
# Disc length: 3196 seconds
#
# Revision: 0
# Processed by: cddbd v1.5.2PL0 Copyright (c) Steve Scherf et al.
# Submitted via: CDex 1.50
#
DISCID=990c7a0b
DTITLE=Joo Kraus_Omar Sosa_Gustavo Ovalles - JOG
DYEAR=2015
DGENRE=Jazz
TTITLE0=Moforibale
TTITLE1=Enchanted Breeze
TTITLE2=Echo Bay
TTITLE3=Muevete En D
TTITLE4=Wood Soul
TTITLE5=Recaredo
TTITLE6=Down The Alley
TTITLE7=Light In The Sky
TTITLE8=Iyawo
TTITLE9=JOG Mode
TTITLE10=Peace River
EXTD=YEAR: 2015
EXTT0=
EXTT1=
EXTT2=
EXTT3=
EXTT4=
EXTT5=
EXTT6=
EXTT7=
EXTT8=
EXTT9=
EXTT10=
PLAYORDER=
